<svg width="213" height="213" viewBox="0 0 213 213" fill="none" xmlns="http://www.w3.org/2000/svg">
<g clip-path="url(#clip0_55_4097)">
<path d="M136.677 206.75C137.598 206.75 138.52 205.828 138.52 205.828C138.52 206.75 137.598 206.75 136.677 206.75Z" fill="#F3F3F3"/>
<path d="M3.96624 77.7258C8.57428 62.0588 27.0063 56.5292 38.9872 68.51C44.5168 74.0395 46.36 81.4128 44.5168 88.7853C44.5168 89.7067 44.5168 89.7067 44.5168 90.6288C43.5952 95.2365 42.6736 99.8448 42.6736 104.453C42.6736 105.374 42.6736 106.296 42.6736 107.217C41.752 119.198 42.6736 130.257 46.36 139.473C60.184 176.338 89.6751 200.299 125.618 208.594C130.226 209.515 134.834 209.515 138.52 207.672C137.599 207.672 137.599 208.594 136.677 208.594C100.735 218.731 61.1056 209.515 32.536 181.867C3.04463 153.298 -6.17139 113.669 3.96624 77.7258Z" fill="#F3F3F3"/>
<path d="M125.283 209.1C89.3402 200.805 59.8487 176.843 46.0247 139.979C42.3383 130.763 41.4167 118.782 42.3383 107.723C42.3383 124.312 48.7895 140.9 60.7703 153.803C78.2806 171.313 102.242 176.843 124.361 170.392C131.734 168.549 139.107 170.392 144.636 175.922C152.009 183.294 152.009 192.51 148.323 200.805C143.715 207.256 135.42 211.864 125.283 209.1Z" fill="#F3F3F3"/>
<path d="M75.8526 5.84375C74.9312 5.84375 74.0098 6.76535 74.0098 6.76535C74.9312 5.84374 75.8526 5.84375 75.8526 5.84375Z" fill="#F3F3F3"/>
<path d="M209.485 134.867C204.877 150.535 186.445 156.064 174.464 144.083C168.935 138.554 167.092 131.181 168.935 123.808C168.935 122.886 168.935 122.886 168.935 121.964C169.857 117.357 170.778 112.748 170.778 108.141C170.778 107.219 170.778 106.297 170.778 105.376C171.7 93.395 170.778 82.3355 167.092 73.1195C153.268 36.2555 123.776 12.2938 87.8339 3.99936C83.2256 3.07776 78.6179 3.07775 74.9316 4.92095C75.853 4.92095 75.853 3.99936 76.7744 3.99936C112.717 -6.13828 152.346 3.07773 180.916 30.7259C209.485 59.2956 218.701 98.9248 209.485 134.867Z" fill="#F3F3F3"/>
<path d="M88.1917 3.91815C124.134 12.2126 153.626 36.1743 167.45 73.0387C171.137 82.2547 172.058 94.2356 171.136 105.294C171.136 88.7058 164.685 72.1166 152.704 59.2143C135.194 41.7039 111.232 36.1743 89.1138 42.6255C81.7406 44.4687 74.368 42.6255 68.8383 37.0959C61.4655 29.723 61.4655 20.507 65.1519 12.2126C69.7596 5.76138 78.9757 1.15334 88.1917 3.91815Z" fill="#F3F3F3"/>
</g>
<defs>
<clipPath id="clip0_55_4097">
<rect width="213" height="213" fill="white"/>
</clipPath>
</defs>
</svg>
