<svg width="42" height="42" viewBox="0 0 42 42" fill="none" xmlns="http://www.w3.org/2000/svg">
<path d="M18.6875 21.208L17.1387 23.8799C17.0129 24.0969 16.8161 24.2643 16.582 24.3545C16.3774 24.4333 16.1548 24.4488 15.9424 24.4004L15.8516 24.376L10.4443 22.6416L9.5957 22.3701V30.1875L10.0469 30.332L19.0508 33.2217L19.8994 33.4932V19.1162L18.6875 21.208ZM22.0996 33.4922L22.9482 33.2197L31.9521 30.332L32.4033 30.1875V22.3701L31.5547 22.6416L26.1475 24.376C25.9295 24.4459 25.6946 24.4466 25.4766 24.377C25.2624 24.3085 25.075 24.1754 24.9385 23.9971L24.8477 23.8584L23.3125 21.208L22.0996 19.1162V33.4922ZM8.74707 12.7822L5.73145 17.9912L5.32812 18.6895L6.0957 18.9365L15.1797 21.8516L15.6787 22.0117L15.9414 21.5586L18.96 16.3486L19.3643 15.6504L18.5957 15.4043L9.50781 12.4883L9.00977 12.3281L8.74707 12.7822ZM32.4912 12.4883L23.4033 15.4043L22.6348 15.6504L23.0391 16.3486L26.0566 21.5586L26.3193 22.0117L26.8174 21.8516L35.9033 18.9365L36.6719 18.6895L36.2676 17.9912L33.252 12.7822L32.9902 12.3281L32.4912 12.4883ZM21.7314 8.38965C21.3515 8.26831 20.9466 8.2433 20.5547 8.31738L20.5361 8.32129L20.5186 8.32617L20.3086 8.37793L20.2871 8.38379L20.2676 8.38965L14.0283 10.3916L12.0996 11.0107L14.0283 11.6299L20.8008 13.8018L21 13.8652L21.1982 13.8018L27.9707 11.6299L29.9004 11.0107L27.9707 10.3916L21.7324 8.38965H21.7314ZM7.39551 21.6631L6.94434 21.5186L3.35547 20.3672C3.21038 20.3206 3.07601 20.2446 2.96191 20.1436C2.84783 20.0426 2.75619 19.9186 2.69238 19.7803C2.62864 19.642 2.5946 19.492 2.5918 19.3398C2.58909 19.1894 2.61655 19.0394 2.67383 18.9004L2.74707 18.7529L7.55176 10.46C7.66447 10.2656 7.83362 10.1098 8.03711 10.0146L8.17773 9.95703L19.5947 6.2959H19.5957C20.3907 6.04085 21.24 6.0064 22.0527 6.19727L22.4102 6.29785L33.832 9.96191H33.833C34.0438 10.0319 34.2288 10.1616 34.3643 10.3379L34.4531 10.4707L39.2598 18.7676H39.2607C39.3372 18.8994 39.3854 19.0458 39.4023 19.1973C39.4193 19.3487 39.4039 19.502 39.3584 19.6475C39.3129 19.793 39.238 19.9281 39.1377 20.043C39.0397 20.1552 38.9193 20.245 38.7852 20.3096L38.6211 20.374L35.0547 21.5186L34.6035 21.6631V29.7148L34.5957 29.9258C34.5592 30.4155 34.3965 30.8888 34.1221 31.2988C33.8088 31.7668 33.3631 32.1304 32.8428 32.3457L32.6045 32.4336L22.4043 35.7041C21.6084 35.9595 20.7579 35.9923 19.9443 35.8008L19.5762 35.7002L9.375 32.4277C8.83797 32.2552 8.36416 31.9273 8.01367 31.4854C7.707 31.0986 7.50646 30.6396 7.43066 30.1543L7.40625 29.9443L7.39551 29.6855V21.6631Z" fill="#003574" stroke="white" stroke-width="1.3"/>
</svg>
