<svg width="25" height="24" viewBox="0 0 25 24" fill="none" xmlns="http://www.w3.org/2000/svg">
<path d="M15.2002 11.9995H3.49707M3.49707 11.9995L6.64791 9.29883M3.49707 11.9995L6.64791 14.7003" stroke="#003574" stroke-linecap="round" stroke-linejoin="round"/>
<path d="M9.80078 7.49924C9.81158 5.54122 9.89891 4.48074 10.5903 3.78936C11.3816 2.99805 12.6545 2.99805 15.2004 2.99805H16.1007C18.6474 2.99805 19.9204 2.99805 20.7117 3.78936C21.5021 4.57977 21.5021 5.8536 21.5021 8.39948V15.6014C21.5021 18.1473 21.5021 19.4211 20.7117 20.2115C20.0194 20.9038 18.9589 20.9902 17.0009 21.001M9.80078 16.5016C9.81158 18.4597 9.89891 19.5201 10.5903 20.2115C11.1673 20.7895 12.0019 20.9452 13.3999 20.9875" stroke="#003574" stroke-linecap="round"/>
</svg>
