<svg width="21" height="22" viewBox="0 0 21 22" fill="none" xmlns="http://www.w3.org/2000/svg">
<path d="M9.44434 0.349609H11.5557C13.3963 0.349609 14.8448 0.350066 15.9756 0.501953C17.1365 0.658462 18.0608 0.985591 18.7881 1.71191C19.5144 2.43923 19.8415 3.36347 19.998 4.52441C20.1499 5.65624 20.1504 7.10376 20.1504 8.94434V13.0557C20.1504 14.8963 20.1499 16.3448 19.998 17.4756C19.8415 18.6365 19.5144 19.5608 18.7881 20.2881C18.0608 21.0144 17.1365 21.3415 15.9756 21.498C14.8438 21.6499 13.3962 21.6504 11.5557 21.6504H9.44434C7.60374 21.6504 6.15523 21.6499 5.02441 21.498C3.86347 21.3415 2.93923 21.0144 2.21191 20.2881C1.48559 19.5608 1.15846 18.6365 1.00195 17.4756C0.850066 16.3438 0.849609 14.8962 0.849609 13.0557V8.94434C0.849609 7.10374 0.850066 5.65523 1.00195 4.52441C1.15846 3.36347 1.48559 2.43923 2.21191 1.71191C2.93923 0.985591 3.86347 0.658462 5.02441 0.501953C6.15624 0.350066 7.60376 0.349609 9.44434 0.349609ZM9.49902 1.65039C7.59484 1.65039 6.23348 1.65192 5.19629 1.79102C4.17934 1.92753 3.57445 2.18636 3.12891 2.63086V2.63184C2.68563 3.07636 2.42651 3.68066 2.29004 4.69727C2.15094 5.73347 2.14941 7.09583 2.14941 9V13C2.14941 14.9042 2.15094 16.2675 2.29004 17.3037C2.42655 18.3196 2.6853 18.9246 3.12988 19.3691C3.57447 19.8137 4.17939 20.0725 5.19629 20.209C6.23249 20.3481 7.59485 20.3496 9.49902 20.3496H11.499C13.4032 20.3496 14.7665 20.3481 15.8027 20.209C16.8186 20.0725 17.4236 19.8137 17.8682 19.3691C18.3127 18.9246 18.5715 18.3196 18.708 17.3027C18.8471 16.2675 18.8486 14.9042 18.8486 13V9C18.8486 7.09582 18.8471 5.73348 18.708 4.69629C18.5715 3.68037 18.3127 3.07544 17.8682 2.63086C17.4236 2.18628 16.8186 1.92753 15.8018 1.79102C14.7666 1.65191 13.4032 1.65039 11.499 1.65039H9.49902ZM6.5 12.3496H11.5C11.6724 12.3496 11.8381 12.4181 11.96 12.54C12.0819 12.6619 12.1504 12.8276 12.1504 13C12.1504 13.1724 12.0819 13.3381 11.96 13.46C11.8381 13.5819 11.6724 13.6504 11.5 13.6504H6.5C6.32761 13.6504 6.16194 13.5819 6.04004 13.46C5.91814 13.3381 5.84961 13.1724 5.84961 13C5.84961 12.8276 5.91814 12.6619 6.04004 12.54C6.16194 12.4181 6.32761 12.3496 6.5 12.3496ZM6.5 8.34961H14.5C14.6724 8.34961 14.8381 8.41814 14.96 8.54004C15.0819 8.66194 15.1504 8.82761 15.1504 9C15.1504 9.17239 15.0819 9.33806 14.96 9.45996C14.8381 9.58186 14.6724 9.65039 14.5 9.65039H6.5C6.32761 9.65039 6.16194 9.58186 6.04004 9.45996C5.91814 9.33806 5.84961 9.17239 5.84961 9C5.84961 8.82761 5.91814 8.66194 6.04004 8.54004C6.16194 8.41814 6.32761 8.34961 6.5 8.34961Z" fill="white" stroke="#003574" stroke-width="0.2"/>
</svg>
