<svg width="24" height="25" viewBox="0 0 24 25" fill="none" xmlns="http://www.w3.org/2000/svg">
<rect width="24" height="24" rx="12" transform="matrix(-1 0 0 1 24 0.5)" fill="#F9F9FA"/>
<path d="M9.73704 19.6299C9.66784 19.6299 9.59863 19.5605 9.59863 19.5605C9.59863 19.5605 9.66784 19.5605 9.73704 19.6299Z" fill="url(#paint0_linear_35_22465)"/>
<path d="M8.97461 18.9375C9.11302 19.215 9.32064 19.3537 9.59747 19.4924C9.32064 19.3537 9.11302 19.215 8.97461 18.9375Z" fill="url(#paint1_linear_35_22465)"/>
<path d="M19.7027 9.84938C19.3566 8.67019 17.9725 8.254 17.0729 9.15574C16.6576 9.57193 16.5192 10.1268 16.6576 10.6818C16.6576 10.7511 16.6576 10.7511 16.6576 10.8205C16.7268 11.1673 16.796 11.5141 16.796 11.861C16.796 11.9303 16.796 11.9997 16.796 12.069C16.8652 12.9708 16.796 13.8032 16.5192 14.4968C15.4811 17.2714 13.2665 19.0749 10.5675 19.6991C10.2215 19.7685 9.87546 19.7685 9.59863 19.6298C9.66784 19.6298 9.66784 19.6991 9.73704 19.6991C12.4361 20.4621 15.4119 19.7685 17.5573 17.6876C19.7719 15.5373 20.4639 12.5546 19.7027 9.84938Z" fill="url(#paint2_linear_35_22465)"/>
<path d="M10.7049 19.6984C13.404 19.0742 15.6186 17.2707 16.6566 14.4961C16.9335 13.8025 17.0027 12.9007 16.9335 12.0684C16.9335 13.3169 16.449 14.5655 15.5494 15.5366C14.2344 16.8545 12.4351 17.2707 10.7742 16.7851C10.2205 16.6464 9.66686 16.7851 9.25163 17.2013C8.69798 17.7562 8.69798 18.4499 8.9748 19.0742C9.25162 19.4904 9.94368 19.8372 10.7049 19.6984Z" fill="url(#paint3_linear_35_22465)"/>
<path d="M14.3037 4.43945C14.3729 4.43945 14.4421 4.50882 14.4421 4.50882C14.3729 4.43945 14.3037 4.43945 14.3037 4.43945Z" fill="url(#paint4_linear_35_22465)"/>
<path d="M15.0652 5.06468C14.9268 4.78722 14.7192 4.64849 14.4424 4.50977C14.7192 4.64849 14.9268 4.85659 15.0652 5.06468Z" fill="url(#paint5_linear_35_22465)"/>
<path d="M4.26833 14.1508C4.61436 15.33 5.99848 15.7461 6.89816 14.8444C7.31339 14.4282 7.45181 13.8733 7.3134 13.3184C7.3134 13.249 7.3134 13.249 7.3134 13.1797C7.24419 12.8328 7.17499 12.486 7.17499 12.1392C7.17499 12.0698 7.17499 12.0005 7.17499 11.9311C7.10578 11.0294 7.17498 10.197 7.45181 9.50334C8.48989 6.72877 10.7045 4.92529 13.4035 4.30101C13.7495 4.23165 14.0956 4.23165 14.3724 4.37038C14.3032 4.37038 14.3032 4.30101 14.234 4.30101C11.535 3.538 8.5591 4.23165 6.41372 6.31258C4.19913 8.46288 3.57628 11.4455 4.26833 14.1508Z" fill="url(#paint6_linear_35_22465)"/>
<path d="M13.3336 4.3702C10.6345 4.99448 8.41995 6.79796 7.38186 9.57254C7.10504 10.2662 7.03583 11.1679 7.10504 12.0003C7.10504 10.7517 7.58948 9.50317 8.48916 8.53207C9.80407 7.21414 11.6034 6.79796 13.2644 7.28351C13.818 7.42224 14.3717 7.28351 14.7869 6.86732C15.3405 6.31241 15.3405 5.61876 15.0637 4.99448C14.7177 4.50893 14.0256 4.16211 13.3336 4.3702Z" fill="url(#paint7_linear_35_22465)"/>
<defs>
<linearGradient id="paint0_linear_35_22465" x1="9.61095" y1="19.5854" x2="9.69514" y2="19.533" gradientUnits="userSpaceOnUse">
<stop stop-color="#85DD97"/>
<stop offset="0.9888" stop-color="#4EBB65"/>
</linearGradient>
<linearGradient id="paint1_linear_35_22465" x1="9.16098" y1="19.2933" x2="9.35238" y2="19.1739" gradientUnits="userSpaceOnUse">
<stop stop-color="#85DD97"/>
<stop offset="0.9888" stop-color="#4EBB65"/>
</linearGradient>
<linearGradient id="paint2_linear_35_22465" x1="12.3287" y1="21.1706" x2="19.5182" y2="9.23271" gradientUnits="userSpaceOnUse">
<stop stop-color="#85DD97"/>
<stop offset="0.9832" stop-color="#4EBB65"/>
</linearGradient>
<linearGradient id="paint3_linear_35_22465" x1="17.6255" y1="14.8701" x2="8.4441" y2="17.1541" gradientUnits="userSpaceOnUse">
<stop stop-color="#85DD97"/>
<stop offset="0.9944" stop-color="#4EBB65"/>
</linearGradient>
<linearGradient id="paint4_linear_35_22465" x1="14.396" y1="4.43182" x2="14.3117" y2="4.4843" gradientUnits="userSpaceOnUse">
<stop stop-color="#85DD97"/>
<stop offset="0.9888" stop-color="#4EBB65"/>
</linearGradient>
<linearGradient id="paint5_linear_35_22465" x1="14.845" y1="4.72618" x2="14.6536" y2="4.84558" gradientUnits="userSpaceOnUse">
<stop stop-color="#85DD97"/>
<stop offset="0.9888" stop-color="#4EBB65"/>
</linearGradient>
<linearGradient id="paint6_linear_35_22465" x1="11.6777" y1="2.85636" x2="4.49246" y2="14.7873" gradientUnits="userSpaceOnUse">
<stop stop-color="#85DD97"/>
<stop offset="0.9888" stop-color="#4EBB65"/>
</linearGradient>
<linearGradient id="paint7_linear_35_22465" x1="6.37907" y1="9.14643" x2="15.5605" y2="6.86249" gradientUnits="userSpaceOnUse">
<stop stop-color="#85DD97"/>
<stop offset="0.9944" stop-color="#4EBB65"/>
</linearGradient>
</defs>
</svg>
