<svg width="25" height="24" viewBox="0 0 25 24" fill="none" xmlns="http://www.w3.org/2000/svg">
<path d="M12.5296 18.0206C12.7632 18.0206 12.9602 17.9403 13.1207 17.7799C13.2811 17.6194 13.3613 17.4224 13.3613 17.1888C13.3613 16.9551 13.2804 16.7581 13.1186 16.5977C12.9581 16.4372 12.7611 16.357 12.5274 16.357C12.2938 16.357 12.0968 16.4376 11.9363 16.5987C11.7759 16.7599 11.696 16.9569 11.6967 17.1898C11.6967 17.4235 11.7769 17.6205 11.9374 17.7809C12.0992 17.9414 12.2966 18.0216 12.5296 18.0216M12.5032 22C11.1901 22 9.95506 21.7509 8.79817 21.2527C7.64198 20.7537 6.63604 20.0768 5.78033 19.2218C4.92463 18.3668 4.24731 17.3619 3.74839 16.2071C3.24946 15.0523 3 13.8177 3 12.5032C3 11.1886 3.24946 9.95365 3.74839 8.79817C4.24661 7.64198 4.92252 6.63604 5.77611 5.78033C6.6297 4.92463 7.63494 4.24731 8.79183 3.74839C9.94872 3.24946 11.1837 3 12.4968 3C13.8099 3 15.0449 3.24946 16.2018 3.74839C17.358 4.24661 18.364 4.92287 19.2197 5.77717C20.0754 6.63146 20.7527 7.6367 21.2516 8.79289C21.7505 9.94907 22 11.1837 22 12.4968C22 13.8099 21.7509 15.0449 21.2527 16.2018C20.7544 17.3587 20.0775 18.3647 19.2218 19.2197C18.3661 20.0747 17.3612 20.752 16.2071 21.2516C15.053 21.7512 13.8184 22.0007 12.5032 22ZM12.5 20.9444C14.8574 20.9444 16.8542 20.1264 18.4903 18.4903C20.1264 16.8542 20.9444 14.8574 20.9444 12.5C20.9444 10.1426 20.1264 8.14583 18.4903 6.50972C16.8542 4.87361 14.8574 4.05556 12.5 4.05556C10.1426 4.05556 8.14583 4.87361 6.50972 6.50972C4.87361 8.14583 4.05556 10.1426 4.05556 12.5C4.05556 14.8574 4.87361 16.8542 6.50972 18.4903C8.14583 20.1264 10.1426 20.9444 12.5 20.9444ZM12.5654 8.00228C13.1003 8.00228 13.5605 8.168 13.9461 8.49944C14.3331 8.83089 14.5267 9.24572 14.5267 9.74394C14.5267 10.131 14.4176 10.4807 14.1994 10.7932C13.9827 11.1056 13.7315 11.3938 13.4458 11.6577C13.0841 11.9856 12.7656 12.3462 12.4905 12.7396C12.2154 13.1337 12.0574 13.5675 12.0166 14.0411C12.0032 14.179 12.0465 14.2944 12.1464 14.3873C12.2449 14.4795 12.361 14.5256 12.4947 14.5256C12.6362 14.5256 12.7554 14.4785 12.8526 14.3842C12.949 14.2892 13.0102 14.1773 13.0362 14.0485C13.1066 13.6931 13.248 13.3768 13.4606 13.0996C13.6724 12.823 13.9053 12.5612 14.1593 12.3142C14.5246 11.9511 14.8486 11.5553 15.1315 11.1267C15.4151 10.6989 15.5569 10.2214 15.5569 9.69433C15.5569 8.91956 15.2627 8.27989 14.6744 7.77533C14.0869 7.27148 13.3972 7.01956 12.6056 7.01956C12.0187 7.01956 11.4722 7.15678 10.9663 7.43122C10.461 7.70567 10.0567 8.08567 9.75344 8.57122C9.68448 8.68804 9.66231 8.80872 9.68694 8.93328C9.71157 9.05783 9.77843 9.15248 9.8875 9.21722C10.0268 9.29041 10.1676 9.3073 10.3097 9.26789C10.4519 9.22848 10.5771 9.14685 10.6855 9.023C10.9198 8.73167 11.1957 8.48889 11.5131 8.29467C11.8297 8.09904 12.1805 8.00228 12.5654 8.00228Z" fill="#003574"/>
</svg>
