<svg width="25" height="24" viewBox="0 0 25 24" fill="none" xmlns="http://www.w3.org/2000/svg">
<path d="M12.5205 3.15039C12.8213 3.15042 13.1124 3.25668 13.3418 3.45117L20.4424 9.47559C20.5828 9.59475 20.696 9.74303 20.7734 9.91016C20.8316 10.0357 20.8689 10.1697 20.8838 10.3066L20.8906 10.4443V19.3457C20.8906 19.6825 20.7567 20.006 20.5186 20.2441C20.2805 20.4821 19.9577 20.6161 19.6211 20.6162H14.1768C14.0285 20.6161 13.8862 20.5569 13.7812 20.4521C13.6762 20.3471 13.6172 20.2042 13.6172 20.0557V13.9893H11.4238V20.0557C11.4238 20.2042 11.3648 20.3471 11.2598 20.4521C11.1548 20.5571 11.0118 20.6162 10.8633 20.6162H5.41992C5.08331 20.6162 4.76057 20.4821 4.52246 20.2441C4.28428 20.006 4.15039 19.6825 4.15039 19.3457V10.4434C4.15053 10.0712 4.31441 9.71681 4.59863 9.47559L11.6992 3.45117C11.9286 3.25672 12.2198 3.15039 12.5205 3.15039ZM19.7705 10.374L19.7178 10.3291L12.6172 4.30566L12.5205 4.22363L12.4238 4.30566L5.32324 10.3291L5.27051 10.374V19.4961H10.3037V13.4287C10.3037 13.2803 10.3629 13.1382 10.4678 13.0332C10.5727 12.9283 10.7149 12.8692 10.8633 12.8691H14.1768C14.3253 12.8691 14.4682 12.9282 14.5732 13.0332C14.6781 13.1382 14.7373 13.2803 14.7373 13.4287V19.4961H19.7705V10.374Z" fill="#003574" stroke="white" stroke-width="0.3"/>
</svg>
