<svg width="87" height="46" viewBox="0 0 87 46" fill="none" xmlns="http://www.w3.org/2000/svg">
<path d="M17.8794 37V11.0816H29.0613C30.6905 11.0816 32.1345 11.4519 33.3934 12.1924C34.677 12.9329 35.689 13.945 36.4295 15.2286C37.1948 16.5122 37.5774 17.9562 37.5774 19.5606C37.5774 21.2392 37.1948 22.7449 36.4295 24.0778C35.689 25.3861 34.677 26.4228 33.3934 27.188C32.1345 27.9533 30.6905 28.3359 29.0613 28.3359H24.1739V37H17.8794ZM24.0628 22.819H28.1727C28.7157 22.819 29.2094 22.6832 29.6537 22.4117C30.0981 22.1401 30.456 21.7699 30.7275 21.3009C30.999 20.8319 31.1348 20.2888 31.1348 19.6717C31.1348 19.0299 30.999 18.4869 30.7275 18.0426C30.456 17.5983 30.0981 17.2527 29.6537 17.0058C29.2094 16.759 28.7157 16.6356 28.1727 16.6356H24.0628V22.819ZM48.6609 37.3332C47.0071 37.3332 45.526 36.9013 44.2178 36.0373C42.9342 35.1487 41.9098 33.9392 41.1446 32.4087C40.3794 30.8536 39.9968 29.1011 39.9968 27.151C39.9968 25.1516 40.3794 23.3867 41.1446 21.8563C41.9098 20.3259 42.9589 19.1287 44.2918 18.2647C45.6248 17.3761 47.1429 16.9318 48.8461 16.9318C49.7841 16.9318 50.6357 17.0675 51.4009 17.3391C52.1908 17.6106 52.8819 17.9932 53.4743 18.4869C54.0668 18.9559 54.5728 19.5113 54.9924 20.1531C55.412 20.7702 55.7206 21.4366 55.9181 22.1525L54.6962 22.0044V17.3391H60.5834V37H54.5851V32.2606L55.9181 32.2236C55.7206 32.9148 55.3997 33.5689 54.9554 34.186C54.5111 34.8031 53.968 35.3462 53.3262 35.8152C52.6844 36.2842 51.9686 36.6544 51.1787 36.9259C50.3888 37.1975 49.5496 37.3332 48.6609 37.3332ZM50.2901 32.3347C51.2034 32.3347 51.9933 32.1249 52.6598 31.7052C53.3262 31.2856 53.8446 30.6932 54.2149 29.928C54.5851 29.1381 54.7703 28.2124 54.7703 27.151C54.7703 26.0896 54.5851 25.1763 54.2149 24.4111C53.8446 23.6212 53.3262 23.0164 52.6598 22.5968C51.9933 22.1525 51.2034 21.9303 50.2901 21.9303C49.4015 21.9303 48.6239 22.1525 47.9574 22.5968C47.3156 23.0164 46.8096 23.6212 46.4394 24.4111C46.0691 25.1763 45.884 26.0896 45.884 27.151C45.884 28.2124 46.0691 29.1381 46.4394 29.928C46.8096 30.6932 47.3156 31.2856 47.9574 31.7052C48.6239 32.1249 49.4015 32.3347 50.2901 32.3347ZM67.8576 45.516L72.3378 34.9636L72.4118 37.9997L62.9331 17.3391H69.6348L73.7818 27.2251C74.0039 27.7188 74.2138 28.2495 74.4112 28.8172C74.6087 29.3849 74.7568 29.928 74.8555 30.4464L74.041 30.9277C74.1891 30.5574 74.3495 30.1008 74.5223 29.5577C74.7198 28.99 74.9296 28.3852 75.1518 27.7434L78.7803 17.3391H85.5191L77.1512 37L73.7448 45.516H67.8576Z" fill="#003574"/>
<circle cx="10.9181" cy="12.5324" r="10.5382" fill="white"/>
<path d="M2.6582 19.2266V36.8827H9.06659V23.0294C6.4686 22.4862 4.217 21.128 2.6582 19.2266Z" fill="#003574"/>
<circle cx="10.9181" cy="12.675" r="10.5382" fill="white"/>
<path d="M9.07551 18.922C9.01871 18.922 8.96191 18.8652 8.96191 18.8652C8.96191 18.8652 9.01871 18.8652 9.07551 18.922Z" fill="url(#paint0_linear_34_3047)"/>
<path d="M8.4502 18.3555C8.56379 18.5827 8.7342 18.6963 8.9614 18.8099C8.7342 18.6963 8.56379 18.5827 8.4502 18.3555Z" fill="url(#paint1_linear_34_3047)"/>
<path d="M17.2546 10.9147C16.9706 9.94908 15.8346 9.60829 15.0962 10.3467C14.7554 10.6875 14.6419 11.1419 14.7555 11.5963C14.7555 11.6531 14.7555 11.6531 14.7555 11.7099C14.8123 11.9939 14.869 12.2779 14.869 12.5619C14.869 12.6187 14.869 12.6755 14.869 12.7323C14.9258 13.4706 14.8691 14.1522 14.6419 14.7202C13.7899 16.9922 11.9723 18.469 9.7571 18.9802C9.47311 19.037 9.18911 19.037 8.96191 18.9234C9.01871 18.9234 9.01871 18.9802 9.07551 18.9802C11.2907 19.605 13.7331 19.037 15.4938 17.333C17.3114 15.5722 17.8794 13.1298 17.2546 10.9147Z" fill="url(#paint2_linear_34_3047)"/>
<path d="M9.87 18.9804C12.0852 18.4692 13.9028 16.9924 14.7548 14.7204C14.9819 14.1524 15.0387 13.414 14.9819 12.7324C14.9819 13.7548 14.5843 14.7772 13.846 15.5724C12.7668 16.6516 11.29 16.9924 9.9268 16.5948C9.47241 16.4812 9.01801 16.5948 8.67722 16.9356C8.22282 17.39 8.22282 17.958 8.45002 18.4692C8.67721 18.81 9.24521 19.094 9.87 18.9804Z" fill="url(#paint3_linear_34_3047)"/>
<path d="M12.8232 6.48438C12.88 6.48438 12.9368 6.54117 12.9368 6.54117C12.88 6.48438 12.8232 6.48438 12.8232 6.48438Z" fill="url(#paint4_linear_34_3047)"/>
<path d="M13.4487 6.99736C13.3351 6.77017 13.1647 6.65657 12.9375 6.54297C13.1647 6.65657 13.3351 6.82697 13.4487 6.99736Z" fill="url(#paint5_linear_34_3047)"/>
<path d="M4.58742 14.437C4.87141 15.4026 6.0074 15.7434 6.7458 15.005C7.08659 14.6642 7.2002 14.2098 7.0866 13.7554C7.0866 13.6986 7.0866 13.6986 7.0866 13.6418C7.0298 13.3578 6.973 13.0738 6.973 12.7898C6.973 12.733 6.973 12.6762 6.973 12.6194C6.9162 11.881 6.973 11.1994 7.20019 10.6314C8.05218 8.35946 9.86977 6.88268 12.0849 6.37148C12.3689 6.31469 12.6529 6.31469 12.8801 6.42828C12.8233 6.42828 12.8233 6.37148 12.7665 6.37148C10.5514 5.74669 8.10898 6.31469 6.3482 8.01867C4.53062 9.77945 4.01942 12.2218 4.58742 14.437Z" fill="url(#paint6_linear_34_3047)"/>
<path d="M12.0279 6.4274C9.81276 6.9386 7.99518 8.41538 7.14319 10.6874C6.91599 11.2554 6.8592 11.9937 6.91599 12.6753C6.91599 11.6529 7.31359 10.6306 8.05198 9.83537C9.13117 8.75618 10.608 8.41538 11.9711 8.81298C12.4255 8.92658 12.8799 8.81298 13.2207 8.47218C13.6751 8.01778 13.6751 7.44979 13.4479 6.93859C13.1639 6.541 12.5959 6.257 12.0279 6.4274Z" fill="url(#paint7_linear_34_3047)"/>
<defs>
<linearGradient id="paint0_linear_34_3047" x1="8.97202" y1="18.8856" x2="9.04104" y2="18.8425" gradientUnits="userSpaceOnUse">
<stop stop-color="#85DD97"/>
<stop offset="0.9888" stop-color="#4EBB65"/>
</linearGradient>
<linearGradient id="paint1_linear_34_3047" x1="8.60316" y1="18.6468" x2="8.76004" y2="18.5487" gradientUnits="userSpaceOnUse">
<stop stop-color="#85DD97"/>
<stop offset="0.9888" stop-color="#4EBB65"/>
</linearGradient>
<linearGradient id="paint2_linear_34_3047" x1="11.2026" y1="20.1851" x2="17.0834" y2="10.3978" gradientUnits="userSpaceOnUse">
<stop stop-color="#85DD97"/>
<stop offset="0.9832" stop-color="#4EBB65"/>
</linearGradient>
<linearGradient id="paint3_linear_34_3047" x1="15.5499" y1="15.0267" x2="8.01647" y2="16.905" gradientUnits="userSpaceOnUse">
<stop stop-color="#85DD97"/>
<stop offset="0.9944" stop-color="#4EBB65"/>
</linearGradient>
<linearGradient id="paint4_linear_34_3047" x1="12.899" y1="6.47813" x2="12.8299" y2="6.52124" gradientUnits="userSpaceOnUse">
<stop stop-color="#85DD97"/>
<stop offset="0.9888" stop-color="#4EBB65"/>
</linearGradient>
<linearGradient id="paint5_linear_34_3047" x1="13.268" y1="6.72018" x2="13.111" y2="6.81827" gradientUnits="userSpaceOnUse">
<stop stop-color="#85DD97"/>
<stop offset="0.9888" stop-color="#4EBB65"/>
</linearGradient>
<linearGradient id="paint6_linear_34_3047" x1="10.6685" y1="5.18852" x2="4.79116" y2="14.9701" gradientUnits="userSpaceOnUse">
<stop stop-color="#85DD97"/>
<stop offset="0.9888" stop-color="#4EBB65"/>
</linearGradient>
<linearGradient id="paint7_linear_34_3047" x1="6.32017" y1="10.3384" x2="13.8536" y2="8.46014" gradientUnits="userSpaceOnUse">
<stop stop-color="#85DD97"/>
<stop offset="0.9944" stop-color="#4EBB65"/>
</linearGradient>
</defs>
</svg>
