<svg width="35" height="35" viewBox="0 0 35 35" fill="none" xmlns="http://www.w3.org/2000/svg">
<path d="M11.5879 15.5919C10.482 15.5919 9.53801 15.2009 8.75601 14.4189C7.97401 13.6369 7.58301 12.6924 7.58301 11.5855C7.58301 10.4805 7.97401 9.53703 8.75601 8.75503C9.53801 7.97303 10.482 7.58203 11.5879 7.58203C12.6939 7.58203 13.6378 7.97303 14.4198 8.75503C15.2018 9.53703 15.5928 10.481 15.5928 11.5869C15.5928 12.6929 15.2018 13.6369 14.4198 14.4189C13.6378 15.2009 12.6939 15.5919 11.5879 15.5919ZM11.5865 14.1752C12.3043 14.1752 12.9153 13.9235 13.4197 13.4201C13.924 12.9167 14.1762 12.3061 14.1762 11.5884C14.1762 10.8706 13.9245 10.2591 13.4211 9.75378C12.9177 9.2485 12.3071 8.99681 11.5893 8.9987C10.8716 9.00059 10.2605 9.25181 9.75617 9.75236C9.25184 10.2558 8.99967 10.8663 8.99967 11.5841C8.99967 12.3019 9.25137 12.9134 9.75476 13.4187C10.2572 13.9221 10.8678 14.1738 11.5865 14.1738M23.4383 27.4423C22.3333 27.4423 21.3894 27.0513 20.6064 26.2693C19.8254 25.4873 19.4348 24.5433 19.4348 23.4374C19.4348 22.3314 19.8254 21.3874 20.6064 20.6054C21.3875 19.8234 22.3319 19.4324 23.4398 19.4324C24.5476 19.4324 25.4911 19.8234 26.2703 20.6054C27.0494 21.3874 27.4404 22.3314 27.4433 23.4374C27.4461 24.5433 27.0551 25.4873 26.2703 26.2693C25.4854 27.0513 24.5415 27.4423 23.4383 27.4423ZM23.4383 26.0256C24.1561 26.0256 24.7672 25.7739 25.2715 25.2705C25.7749 24.7681 26.0266 24.1575 26.0266 23.4388C26.0266 22.7201 25.7754 22.109 25.2729 21.6056C24.7705 21.1022 24.1599 20.8501 23.4412 20.8491C22.7225 20.8482 22.1109 21.0999 21.6066 21.6042C21.1032 22.1066 20.8515 22.7172 20.8515 23.436C20.8515 24.1547 21.1027 24.7657 21.6052 25.2691C22.1076 25.7725 22.7196 26.0247 23.4383 26.0256ZM8.83109 27.1703L7.85501 26.1942L26.198 7.85403L27.1727 8.8287L8.83109 27.1703Z" fill="#003574"/>
</svg>
