<svg width="25" height="24" viewBox="0 0 25 24" fill="none" xmlns="http://www.w3.org/2000/svg">
<g clip-path="url(#clip0_35_22551)">
<mask id="path-1-inside-1_35_22551" fill="white">
<path fill-rule="evenodd" clip-rule="evenodd" d="M12.6702 23.4926L12.6601 23.4945L12.5953 23.5264L12.5771 23.5301L12.5643 23.5264L12.4995 23.4945C12.4897 23.4914 12.4824 23.4929 12.4776 23.499L12.4739 23.5082L12.4584 23.8989L12.463 23.9171L12.4721 23.929L12.567 23.9965L12.5807 24.0002L12.5917 23.9965L12.6866 23.929L12.6976 23.9144L12.7012 23.8989L12.6857 23.5091C12.6833 23.4993 12.6781 23.4939 12.6702 23.4926ZM12.9121 23.3895L12.9002 23.3913L12.7313 23.4762L12.7222 23.4853L12.7195 23.4954L12.7359 23.8879L12.7405 23.8989L12.7478 23.9052L12.9313 23.9901C12.9428 23.9932 12.9516 23.9908 12.9577 23.9828L12.9614 23.9701L12.9303 23.4096C12.9273 23.3986 12.9212 23.3919 12.9121 23.3895ZM12.2594 23.3913C12.2554 23.3889 12.2506 23.3881 12.246 23.3891C12.2414 23.3901 12.2374 23.3929 12.2348 23.3968L12.2293 23.4096L12.1982 23.9701C12.1989 23.981 12.204 23.9883 12.2138 23.992L12.2275 23.9901L12.4109 23.9052L12.4201 23.8979L12.4237 23.8879L12.4392 23.4954L12.4365 23.4844L12.4274 23.4753L12.2594 23.3913Z"/>
</mask>
<path d="M12.6702 23.4926L12.7614 22.8996L12.6619 22.8843L12.5628 22.9023L12.6702 23.4926ZM12.6601 23.4945L12.5528 22.9042L12.4702 22.9192L12.3949 22.9563L12.6601 23.4945ZM12.5953 23.5264L12.713 24.1148L12.7901 24.0993L12.8606 24.0646L12.5953 23.5264ZM12.5771 23.5301L12.4123 24.107L12.5521 24.1469L12.6947 24.1184L12.5771 23.5301ZM12.5643 23.5264L12.299 24.0646L12.3475 24.0885L12.3995 24.1033L12.5643 23.5264ZM12.4995 23.4945L12.7648 22.9563L12.723 22.9357L12.6784 22.9218L12.4995 23.4945ZM12.4776 23.499L12.0091 23.1242L11.9535 23.1937L11.9205 23.2762L12.4776 23.499ZM12.4739 23.5082L11.9168 23.2853L11.8785 23.3812L11.8744 23.4843L12.4739 23.5082ZM12.4584 23.8989L11.8589 23.875L11.8555 23.961L11.8763 24.0444L12.4584 23.8989ZM12.463 23.9171L11.8809 24.0626L11.9112 24.1839L11.9874 24.2829L12.463 23.9171ZM12.4721 23.929L11.9965 24.2948L12.0512 24.3659L12.1242 24.4179L12.4721 23.929ZM12.567 23.9965L12.2192 24.4854L12.3076 24.5483L12.4124 24.5763L12.567 23.9965ZM12.5807 24.0002L12.4261 24.5799L12.5999 24.6263L12.7704 24.5694L12.5807 24.0002ZM12.5917 23.9965L12.7814 24.5657L12.8665 24.5374L12.9395 24.4854L12.5917 23.9965ZM12.6866 23.929L13.0345 24.4179L13.1106 24.3637L13.1666 24.289L12.6866 23.929ZM12.6976 23.9144L13.1776 24.2744L13.2529 24.174L13.2816 24.0518L12.6976 23.9144ZM12.7012 23.8989L13.2853 24.0363L13.304 23.9567L13.3007 23.875L12.7012 23.8989ZM12.6857 23.5091L13.2852 23.4852L13.2828 23.4235L13.2678 23.3636L12.6857 23.5091ZM12.9121 23.3895L13.0667 22.8097L12.9452 22.7773L12.8209 22.7965L12.9121 23.3895ZM12.9002 23.3913L12.809 22.7983L12.7154 22.8127L12.6307 22.8552L12.9002 23.3913ZM12.7313 23.4762L12.4619 22.9401L12.3755 22.9836L12.3071 23.0519L12.7313 23.4762ZM12.7222 23.4853L12.298 23.0611L12.1853 23.1738L12.1433 23.3275L12.7222 23.4853ZM12.7195 23.4954L12.1406 23.3375L12.1161 23.4274L12.12 23.5205L12.7195 23.4954ZM12.7359 23.8879L12.1364 23.913L12.1409 24.0199L12.1821 24.1187L12.7359 23.8879ZM12.7405 23.8989L12.1866 24.1296L12.2403 24.2585L12.3454 24.3504L12.7405 23.8989ZM12.7478 23.9052L12.3527 24.3568L12.4176 24.4136L12.4958 24.4498L12.7478 23.9052ZM12.9313 23.9901L12.6793 24.5347L12.7274 24.5569L12.7786 24.5704L12.9313 23.9901ZM12.9577 23.9828L13.4333 24.3487L13.5032 24.2578L13.5346 24.1477L12.9577 23.9828ZM12.9614 23.9701L13.5383 24.1349L13.566 24.0378L13.5605 23.9369L12.9614 23.9701ZM12.9303 23.4096L13.5294 23.3764L13.5258 23.3116L13.5085 23.249L12.9303 23.4096ZM12.2594 23.3913L11.9484 23.9044L11.9693 23.9171L11.9911 23.928L12.2594 23.3913ZM12.2348 23.3968L11.7357 23.0637L11.705 23.1096L11.6833 23.1604L12.2348 23.3968ZM12.2293 23.4096L11.6778 23.1732L11.6361 23.2706L11.6302 23.3764L12.2293 23.4096ZM12.1982 23.9701L11.5992 23.9369L11.5973 23.9701L11.5992 24.0033L12.1982 23.9701ZM12.2138 23.992L12.0031 24.5538L12.144 24.6066L12.2931 24.5867L12.2138 23.992ZM12.2275 23.9901L12.3068 24.5849L12.3969 24.5729L12.4794 24.5347L12.2275 23.9901ZM12.4109 23.9052L12.6629 24.4498L12.7289 24.4192L12.7857 24.3738L12.4109 23.9052ZM12.4201 23.8979L12.7949 24.3665L12.9264 24.2613L12.9839 24.103L12.4201 23.8979ZM12.4237 23.8879L12.9876 24.0929L13.0196 24.0051L13.0232 23.9116L12.4237 23.8879ZM12.4392 23.4954L13.0388 23.5191L13.0422 23.4332L13.0213 23.3498L12.4392 23.4954ZM12.4365 23.4844L13.0186 23.3389L12.9783 23.1777L12.8608 23.0602L12.4365 23.4844ZM12.4274 23.4753L12.8516 23.051L12.7828 22.9822L12.6957 22.9386L12.4274 23.4753ZM12.6702 23.4926L12.5628 22.9023L12.5528 22.9042L12.6601 23.4945L12.7675 24.0848L12.7776 24.083L12.6702 23.4926ZM12.6601 23.4945L12.3949 22.9563L12.33 22.9883L12.5953 23.5264L12.8606 24.0646L12.9254 24.0326L12.6601 23.4945ZM12.5953 23.5264L12.4777 22.9381L12.4594 22.9417L12.5771 23.5301L12.6947 24.1184L12.713 24.1148L12.5953 23.5264ZM12.5771 23.5301L12.7419 22.9532L12.7291 22.9495L12.5643 23.5264L12.3995 24.1033L12.4123 24.107L12.5771 23.5301ZM12.5643 23.5264L12.8296 22.9883L12.7648 22.9563L12.4995 23.4945L12.2342 24.0326L12.299 24.0646L12.5643 23.5264ZM12.4995 23.4945L12.6784 22.9218C12.6103 22.9005 12.4981 22.8781 12.3644 22.9059C12.2176 22.9365 12.0944 23.0175 12.0091 23.1242L12.4776 23.499L12.9461 23.8738C12.8656 23.9745 12.7485 24.0517 12.609 24.0807C12.4826 24.1071 12.3789 24.0854 12.3205 24.0672L12.4995 23.4945ZM12.4776 23.499L11.9205 23.2762L11.9168 23.2853L12.4739 23.5082L13.031 23.731L13.0347 23.7218L12.4776 23.499ZM12.4739 23.5082L11.8744 23.4843L11.8589 23.875L12.4584 23.8989L13.0579 23.9227L13.0734 23.532L12.4739 23.5082ZM12.4584 23.8989L11.8763 24.0444L11.8809 24.0626L12.463 23.9171L13.0451 23.7716L13.0405 23.7533L12.4584 23.8989ZM12.463 23.9171L11.9874 24.2829L11.9965 24.2948L12.4721 23.929L12.9477 23.5632L12.9385 23.5513L12.463 23.9171ZM12.4721 23.929L12.1242 24.4179L12.2192 24.4854L12.567 23.9965L12.9149 23.5077L12.8199 23.4401L12.4721 23.929ZM12.567 23.9965L12.4124 24.5763L12.4261 24.5799L12.5807 24.0002L12.7353 23.4204L12.7216 23.4168L12.567 23.9965ZM12.5807 24.0002L12.7704 24.5694L12.7814 24.5657L12.5917 23.9965L12.402 23.4273L12.391 23.431L12.5807 24.0002ZM12.5917 23.9965L12.9395 24.4854L13.0345 24.4179L12.6866 23.929L12.3388 23.4401L12.2438 23.5077L12.5917 23.9965ZM12.6866 23.929L13.1666 24.289L13.1776 24.2744L12.6976 23.9144L12.2176 23.5544L12.2066 23.569L12.6866 23.929ZM12.6976 23.9144L13.2816 24.0518L13.2853 24.0363L12.7012 23.8989L12.1172 23.7614L12.1135 23.777L12.6976 23.9144ZM12.7012 23.8989L13.3007 23.875L13.2852 23.4852L12.6857 23.5091L12.0862 23.5329L12.1017 23.9227L12.7012 23.8989ZM12.6857 23.5091L13.2678 23.3636C13.2496 23.2908 13.2091 23.1841 13.1162 23.0857C13.016 22.9796 12.8885 22.9192 12.7614 22.8996L12.6702 23.4926L12.579 24.0857C12.4598 24.0673 12.3388 24.0102 12.2438 23.9096C12.156 23.8167 12.1194 23.7176 12.1036 23.6546L12.6857 23.5091ZM12.9121 23.3895L12.8209 22.7965L12.809 22.7983L12.9002 23.3913L12.9914 23.9843L13.0033 23.9825L12.9121 23.3895ZM12.9002 23.3913L12.6307 22.8552L12.4619 22.9401L12.7313 23.4762L13.0008 24.0123L13.1697 23.9274L12.9002 23.3913ZM12.7313 23.4762L12.3071 23.0519L12.298 23.0611L12.7222 23.4853L13.1465 23.9096L13.1556 23.9005L12.7313 23.4762ZM12.7222 23.4853L12.1433 23.3275L12.1406 23.3375L12.7195 23.4954L13.2983 23.6532L13.3011 23.6432L12.7222 23.4853ZM12.7195 23.4954L12.12 23.5205L12.1364 23.913L12.7359 23.8879L13.3354 23.8628L13.319 23.4703L12.7195 23.4954ZM12.7359 23.8879L12.1821 24.1187L12.1866 24.1296L12.7405 23.8989L13.2943 23.6681L13.2897 23.6571L12.7359 23.8879ZM12.7405 23.8989L12.3454 24.3504L12.3527 24.3568L12.7478 23.9052L13.1429 23.4537L13.1356 23.4473L12.7405 23.8989ZM12.7478 23.9052L12.4958 24.4498L12.6793 24.5347L12.9313 23.9901L13.1832 23.4456L12.9997 23.3607L12.7478 23.9052ZM12.9313 23.9901L12.7786 24.5704C12.8562 24.5908 12.9729 24.6057 13.1061 24.569C13.2476 24.53 13.3584 24.446 13.4333 24.3487L12.9577 23.9828L12.4822 23.617C12.551 23.5275 12.6543 23.4488 12.787 23.4122C12.9114 23.3779 13.0179 23.3925 13.084 23.4099L12.9313 23.9901ZM12.9577 23.9828L13.5346 24.1477L13.5383 24.1349L12.9614 23.9701L12.3845 23.8052L12.3808 23.818L12.9577 23.9828ZM12.9614 23.9701L13.5605 23.9369L13.5294 23.3764L12.9303 23.4096L12.3313 23.4427L12.3623 24.0032L12.9614 23.9701ZM12.9303 23.4096L13.5085 23.249C13.4621 23.0821 13.3261 22.8789 13.0667 22.8097L12.9121 23.3895L12.7575 23.9692C12.6559 23.9421 12.5576 23.8858 12.4796 23.8C12.4054 23.7184 12.3695 23.6324 12.3522 23.5702L12.9303 23.4096ZM12.2594 23.3913L12.5704 22.8782C12.4341 22.7956 12.2712 22.7689 12.1158 22.8034L12.246 23.3891L12.3761 23.9748C12.2299 24.0073 12.0767 23.9822 11.9484 23.9044L12.2594 23.3913ZM12.246 23.3891L12.1158 22.8034C11.9604 22.8379 11.8242 22.9311 11.7357 23.0637L12.2348 23.3968L12.7338 23.7299C12.6505 23.8546 12.5224 23.9423 12.3761 23.9748L12.246 23.3891ZM12.2348 23.3968L11.6833 23.1604L11.6778 23.1732L12.2293 23.4096L12.7808 23.6459L12.7862 23.6332L12.2348 23.3968ZM12.2293 23.4096L11.6302 23.3764L11.5992 23.9369L12.1982 23.9701L12.7973 24.0032L12.8284 23.4427L12.2293 23.4096ZM12.1982 23.9701L11.5992 24.0033C11.6043 24.096 11.6318 24.2159 11.713 24.3306C11.7956 24.4473 11.9045 24.5168 12.0031 24.5538L12.2138 23.992L12.4244 23.4302C12.5133 23.4635 12.6147 23.5275 12.6922 23.6369C12.7682 23.7443 12.7928 23.855 12.7973 23.9368L12.1982 23.9701ZM12.2138 23.992L12.2931 24.5867L12.3068 24.5849L12.2275 23.9901L12.1481 23.3954L12.1344 23.3972L12.2138 23.992ZM12.2275 23.9901L12.4794 24.5347L12.6629 24.4498L12.4109 23.9052L12.159 23.3607L11.9755 23.4456L12.2275 23.9901ZM12.4109 23.9052L12.7857 24.3738L12.7949 24.3665L12.4201 23.8979L12.0453 23.4294L12.0361 23.4367L12.4109 23.9052ZM12.4201 23.8979L12.9839 24.103L12.9876 24.0929L12.4237 23.8879L11.8598 23.6829L11.8562 23.6929L12.4201 23.8979ZM12.4237 23.8879L13.0232 23.9116L13.0388 23.5191L12.4392 23.4954L11.8397 23.4717L11.8242 23.8642L12.4237 23.8879ZM12.4392 23.4954L13.0213 23.3498L13.0186 23.3389L12.4365 23.4844L11.8544 23.63L11.8572 23.6409L12.4392 23.4954ZM12.4365 23.4844L12.8608 23.0602L12.8516 23.051L12.4274 23.4753L12.0031 23.8996L12.0122 23.9087L12.4365 23.4844ZM12.4274 23.4753L12.6957 22.9386L12.5277 22.8547L12.2594 23.3913L11.9911 23.928L12.159 24.012L12.4274 23.4753Z" fill="white" mask="url(#path-1-inside-1_35_22551)"/>
<path d="M16.6924 5.25C17.3271 5.24996 17.9386 5.49227 18.4004 5.92773C18.8046 6.30888 19.068 6.81282 19.1523 7.35742L19.1768 7.59277L19.1816 7.74609V12.0938L19.5332 11.9375L20.0752 11.6973C20.4775 11.5184 20.9511 11.7973 21.0029 12.2266L21.0068 12.3154V19.6055C21.007 20.003 20.8572 20.3862 20.5869 20.6777C20.3183 20.9675 19.9503 21.1453 19.5566 21.1768L19.4229 21.1816H4.8252C4.42782 21.1817 4.04529 21.0309 3.75391 20.7607C3.46406 20.492 3.28522 20.1244 3.25391 19.7305L3.25 19.5977V12.3027C3.25003 11.8633 3.69677 11.5443 4.10742 11.6689L4.18652 11.6992L4.72363 11.9375L5.07617 12.0947V7.73828C5.0762 7.10362 5.3185 6.49302 5.75391 6.03125C6.18752 5.57143 6.77954 5.29301 7.41016 5.25391L7.41113 5.25488L7.57129 5.25H16.6924ZM19.3301 13.4795L12.7686 16.3945C12.5673 16.4839 12.3491 16.5302 12.1289 16.5303C11.9085 16.5303 11.6897 16.484 11.4883 16.3945L4.92676 13.4805L4.57617 13.3242V19.8555H19.6816V13.3232L19.3301 13.4795ZM7.56445 6.57617C7.25616 6.57617 6.96024 6.69809 6.74219 6.91602C6.52417 7.13403 6.40144 7.42997 6.40137 7.73828V12.6836L6.5498 12.749L12.0273 15.1836L12.1289 15.2295L12.2305 15.1836L17.707 12.749L17.8555 12.6836V7.73828C17.8554 7.42997 17.7327 7.13403 17.5146 6.91602C17.2966 6.69812 17.0007 6.57617 16.6924 6.57617H7.56445ZM10.3027 9.81445H12.1279L12.2529 9.82617C12.3757 9.84983 12.4899 9.90819 12.582 9.99512C12.7049 10.1111 12.7792 10.2698 12.7891 10.4385C12.7989 10.607 12.7441 10.7729 12.6357 10.9023C12.5287 11.0303 12.3772 11.1125 12.2119 11.1338L12.1289 11.1396H10.3027C10.1339 11.1394 9.9714 11.0749 9.84863 10.959C9.72585 10.843 9.6515 10.6842 9.6416 10.5156C9.63179 10.3471 9.68753 10.1812 9.7959 10.0518C9.90413 9.92252 10.0573 9.83948 10.2246 9.81934L10.3027 9.81348V9.81445Z" fill="#003574" stroke="white" stroke-width="0.5"/>
</g>
<defs>
<clipPath id="clip0_35_22551">
<rect width="24" height="24" fill="white" transform="translate(0.5)"/>
</clipPath>
</defs>
</svg>
