<svg width="25" height="24" viewBox="0 0 25 24" fill="none" xmlns="http://www.w3.org/2000/svg">
<path d="M15.2832 15.7695C14.2549 16.2379 13.1336 16.4805 11.999 16.4805C10.8646 16.4804 9.74397 16.2379 8.71582 15.7695L8.47363 15.6592V21.3008L8.74512 21.1035L8.89648 20.9941C8.98119 20.9337 9.06511 20.8721 9.14844 20.8096L10.3955 19.8906L10.3965 19.8916C11.0684 19.3986 11.466 19.1164 11.998 19.1162C12.5303 19.1162 12.9285 19.3985 13.6006 19.8916L14.8389 20.7998L14.8418 20.8027C14.9867 20.904 15.13 21.0033 15.252 21.0928L15.5234 21.293L15.5244 20.9551L15.5254 20.46V15.6592L15.2832 15.7695ZM11.999 2.34375C8.34711 2.34399 5.37705 5.24422 5.37695 8.82617C5.37695 12.4082 8.34705 15.3093 11.999 15.3096C15.6512 15.3096 18.6221 12.4084 18.6221 8.82617C18.622 5.24407 15.6511 2.34375 11.999 2.34375ZM12.0205 4.19043C12.3902 4.19057 12.732 4.39809 12.8984 4.73242L13.6523 6.24707L13.6914 6.3252L13.7783 6.33984L15.3984 6.60156V6.60254C15.7156 6.65564 15.9832 6.85338 16.1211 7.13086L16.1719 7.25488C16.2856 7.60745 16.1987 7.98469 15.9443 8.25195L14.7568 9.46387L14.6973 9.52539L14.71 9.60938L14.9678 11.3057C15.0201 11.6856 14.8617 12.0447 14.5547 12.2598C14.256 12.466 13.8601 12.4921 13.5352 12.3203H13.5342L12.0791 11.5625L11.999 11.5215L11.9199 11.5625L10.4648 12.3193L10.4619 12.3213C10.3259 12.3962 10.169 12.4316 10.0078 12.4316C9.80974 12.4316 9.609 12.3783 9.44727 12.2617L9.44336 12.2598L9.33301 12.1729C9.09448 11.9545 8.98507 11.632 9.03125 11.3057L9.2666 9.75488H9.56836L9.2832 9.46387L8.09668 8.25195L8.0957 8.25098C7.83152 7.98372 7.74464 7.60795 7.86719 7.25684L7.86816 7.25488C7.98161 6.91338 8.27917 6.66226 8.6416 6.60156L10.2617 6.33984L10.3486 6.3252L10.3877 6.24707L11.1416 4.73242C11.3081 4.39798 11.6507 4.19043 12.0205 4.19043ZM11.8457 5.95312L11.3604 6.93262C11.2375 7.18026 11.0135 7.36307 10.7529 7.43945L10.6396 7.46582L9.51562 7.64746L9.19043 7.7002L9.41992 7.93652L10.2461 8.78418V8.78516C10.4546 8.99767 10.5526 9.30629 10.5088 9.6084L10.333 10.749L10.2822 11.082L10.5811 10.9277L11.541 10.4326L11.5449 10.4307C11.681 10.3558 11.8378 10.3204 11.999 10.3203C12.1602 10.3203 12.317 10.3559 12.4531 10.4307L12.458 10.4326L13.418 10.9277L13.7168 11.082L13.666 10.749L13.4902 9.6084C13.4465 9.30627 13.5444 8.99767 13.7529 8.78516V8.78418L14.5791 7.93652L14.8086 7.7002L14.4834 7.64746L13.3594 7.46582H13.3604C13.2048 7.43889 13.0581 7.37603 12.9326 7.2832C12.8073 7.19046 12.7069 7.0702 12.6387 6.93262L12.1533 5.95312L11.999 5.64258L11.8457 5.95312ZM7.26758 14.9121L7.2002 14.8604C5.36113 13.4564 4.17188 11.2733 4.17188 8.82617C4.17198 4.61241 7.68467 1.17188 12.001 1.17188C16.317 1.17212 19.828 4.61253 19.8281 8.82617C19.8281 11.2733 18.6389 13.4564 16.7998 14.8604L16.7324 14.9121V20.4502C16.7324 20.9771 16.7304 21.4026 16.6475 21.7402C16.568 22.0635 16.4177 22.2897 16.1191 22.4346C15.9617 22.507 15.8213 22.54 15.6855 22.54C15.4683 22.54 15.2427 22.4635 14.9844 22.3203C14.7252 22.1766 14.4476 21.9749 14.126 21.7363L14.125 21.7354L12.876 20.8164L12.875 20.8154L12.7812 20.748H12.7822C12.6369 20.6421 12.4861 20.5331 12.3604 20.4492C12.2978 20.4075 12.2383 20.3701 12.1865 20.3418C12.1432 20.3181 12.0788 20.2855 12.0166 20.2793L11.999 20.2773L11.9814 20.2793C11.9201 20.286 11.856 20.318 11.8125 20.3418C11.7608 20.3701 11.7012 20.4084 11.6387 20.4502C11.5133 20.5339 11.363 20.6421 11.2178 20.748L11.125 20.8164L9.88672 21.7246L9.85938 21.7451H9.8584C9.43169 22.0572 9.08887 22.3076 8.76758 22.4414C8.4587 22.5701 8.18415 22.5847 7.88477 22.4365H7.88281C7.58266 22.2917 7.43217 22.0643 7.35254 21.7402C7.26963 21.4026 7.26758 20.9771 7.26758 20.4502V14.9121Z" fill="#003574" stroke="white" stroke-width="0.342857"/>
</svg>
