<svg width="25" height="24" viewBox="0 0 25 24" fill="none" xmlns="http://www.w3.org/2000/svg">
<path d="M9.5 14.4004C10.132 14.4002 10.7464 14.6101 11.2461 14.9971C11.7456 15.3839 12.1027 15.9254 12.2607 16.5371L12.29 16.6504H20.751C20.9008 16.6502 21.0455 16.7057 21.1562 16.8066C21.2669 16.9075 21.336 17.0462 21.3496 17.1953C21.3631 17.3445 21.3202 17.494 21.2295 17.6133C21.1395 17.7316 21.0083 17.8115 20.8623 17.8389L20.748 17.8496L12.4062 17.8516H12.29L12.2607 17.9639C12.1033 18.5762 11.7467 19.1194 11.2471 19.5068C10.7474 19.8943 10.1323 20.1045 9.5 20.1045C8.86782 20.1044 8.2535 19.8942 7.75391 19.5068C7.2542 19.1194 6.89769 18.5763 6.74023 17.9639L6.71094 17.8516H6.59473L4.25098 17.8496H4.25C4.10011 17.8499 3.95549 17.7943 3.84473 17.6934C3.73407 17.5925 3.66501 17.4538 3.65137 17.3047C3.63782 17.1554 3.68074 17.006 3.77148 16.8867C3.86139 16.7686 3.99193 16.6877 4.1377 16.6602L4.25195 16.6504H6.71094L6.74023 16.5371C6.89827 15.9254 7.25537 15.3839 7.75488 14.9971C8.25444 14.6102 8.86817 14.4003 9.5 14.4004ZM9.5 15.5996C9.06267 15.5997 8.6433 15.7738 8.33398 16.083C8.02455 16.3924 7.85059 16.8124 7.85059 17.25C7.85059 17.6876 8.02455 18.1076 8.33398 18.417C8.6433 18.7262 9.06267 18.9003 9.5 18.9004C9.93751 18.9004 10.3576 18.7263 10.667 18.417C10.9764 18.1076 11.1504 17.6876 11.1504 17.25C11.1504 16.8124 10.9764 16.3924 10.667 16.083C10.3576 15.7737 9.93751 15.5996 9.5 15.5996ZM15.5 3.90039C16.132 3.90023 16.7464 4.11014 17.2461 4.49707C17.7456 4.88392 18.1027 5.42543 18.2607 6.03711L18.29 6.15039H20.751C20.9008 6.15019 21.0455 6.20569 21.1562 6.30664C21.2669 6.40755 21.336 6.54622 21.3496 6.69531C21.3631 6.84455 21.3202 6.99401 21.2295 7.11328C21.1395 7.23157 21.0083 7.31146 20.8623 7.33887L20.748 7.34961L18.4062 7.35156H18.29L18.2607 7.46387C18.1033 8.07624 17.7467 8.61936 17.2471 9.00684C16.7474 9.39431 16.1323 9.60449 15.5 9.60449C14.8678 9.6044 14.2535 9.39422 13.7539 9.00684C13.2542 8.61936 12.8977 8.07628 12.7402 7.46387L12.7109 7.35156H12.5947L4.25 7.34961C4.10011 7.34985 3.95549 7.29435 3.84473 7.19336C3.73407 7.09245 3.66501 6.95381 3.65137 6.80469C3.63782 6.65542 3.68074 6.506 3.77148 6.38672C3.86139 6.2686 3.99193 6.18767 4.1377 6.16016L4.25195 6.15039H12.7109L12.7402 6.03711C12.8983 5.42541 13.2554 4.88391 13.7549 4.49707C14.2544 4.11022 14.8682 3.90031 15.5 3.90039ZM15.5 5.09961C15.0627 5.09972 14.6433 5.27385 14.334 5.58301C14.0245 5.89244 13.8506 6.31239 13.8506 6.75C13.8506 7.18761 14.0245 7.60756 14.334 7.91699C14.6433 8.22615 15.0627 8.40028 15.5 8.40039C15.9375 8.40039 16.3576 8.2263 16.667 7.91699C16.9764 7.60756 17.1504 7.18761 17.1504 6.75C17.1504 6.31239 16.9764 5.89244 16.667 5.58301C16.3576 5.2737 15.9375 5.09961 15.5 5.09961Z" fill="#003574" stroke="white" stroke-width="0.3"/>
</svg>
