<svg width="25" height="24" viewBox="0 0 25 24" fill="none" xmlns="http://www.w3.org/2000/svg">
<path d="M3.5 7.7373C3.63592 7.7373 3.76619 7.79158 3.8623 7.8877C3.9583 7.98379 4.0127 8.11416 4.0127 8.25V19.7373H18.5C18.6359 19.7373 18.7662 19.7916 18.8623 19.8877C18.9583 19.9838 19.0127 20.1142 19.0127 20.25C19.0126 20.3858 18.9583 20.5163 18.8623 20.6123C18.7662 20.7083 18.6358 20.7617 18.5 20.7617H3.5C3.36416 20.7617 3.23379 20.7083 3.1377 20.6123C3.04167 20.5163 2.9874 20.3858 2.9873 20.25V8.25C2.9873 8.11416 3.0417 7.98379 3.1377 7.8877C3.23381 7.79158 3.36408 7.7373 3.5 7.7373ZM17.0049 4.75098C17.1376 4.74863 17.2661 4.7982 17.3633 4.88867L21.8623 9.3877C21.9582 9.48377 22.0117 9.61428 22.0117 9.75C22.0116 9.88553 21.958 10.0154 21.8623 10.1113L17.3633 14.6104C17.2661 14.7009 17.1377 14.7504 17.0049 14.748C16.8721 14.7457 16.7452 14.6915 16.6514 14.5977C16.5578 14.5039 16.5044 14.3776 16.502 14.2451C16.4996 14.113 16.547 13.9837 16.6367 13.8867L16.6377 13.8877L20.1768 10.3477L20.2627 10.2617H15.9688L15.6162 10.2695C13.8589 10.3412 12.1637 10.9577 10.7686 12.0381C9.28041 13.1905 8.21766 14.8052 7.74805 16.6279C7.71404 16.7595 7.62876 16.8724 7.51172 16.9414C7.3948 17.0102 7.25538 17.0299 7.12402 16.9961C6.9924 16.9621 6.87959 16.8769 6.81055 16.7598C6.74154 16.6427 6.72188 16.5027 6.75586 16.3711C7.28235 14.3286 8.47296 12.519 10.1406 11.2275C11.8086 9.93593 13.8592 9.23574 15.9688 9.2373H20.2646L20.1787 9.15137L16.6377 5.61133H16.6367C16.5475 5.51449 16.4997 5.38661 16.502 5.25488C16.5043 5.12219 16.5576 4.99525 16.6514 4.90137C16.7452 4.80749 16.8721 4.75334 17.0049 4.75098Z" fill="#003574" stroke="white" stroke-width="0.1"/>
</svg>
